<?xml version="1.0" standalone="no"?>
<!DOCTYPE svg PUBLIC "-//W3C//DTD SVG 20010904//EN"
 "http://www.w3.org/TR/2001/REC-SVG-20010904/DTD/svg10.dtd">
<svg version="1.0" xmlns="http://www.w3.org/2000/svg"
 width="300.000000pt" height="168.000000pt" viewBox="0 0 300.000000 168.000000"
 preserveAspectRatio="xMidYMid meet">

<g transform="translate(0.000000,168.000000) scale(0.100000,-0.100000)"
fill="#000000" stroke="none">
<path d="M180 1660 c6 -11 11 -49 12 -85 l1 -65 45 -20 c59 -26 62 -26 62 15
0 19 3 34 8 33 4 0 15 2 25 6 14 7 17 21 17 72 l0 64 -90 0 c-88 0 -90 -1 -80
-20z"/>
<path d="M460 1671 c0 -5 18 -12 40 -16 48 -8 86 -36 94 -70 4 -14 11 -25 17
-25 27 0 79 -34 79 -51 0 -11 7 -19 15 -19 25 0 65 -23 65 -37 0 -22 25 -9 28
14 2 13 -7 26 -25 38 -15 10 -34 27 -41 37 -7 10 -17 16 -22 13 -4 -3 -21 10
-36 27 -15 18 -30 32 -34 31 -4 -1 -22 14 -40 32 -30 31 -40 35 -87 35 -29 0
-53 -4 -53 -9z"/>
<path d="M598 1662 c4 -11 7 -12 10 -4 3 10 7 10 18 1 10 -8 14 -8 14 0 0 6
-3 11 -7 12 -5 0 -16 2 -25 4 -12 2 -15 -2 -10 -13z"/>
<path d="M676 1648 c19 -20 23 -29 12 -25 -10 4 -18 2 -18 -3 0 -12 37 -32 43
-22 2 4 2 2 1 -5 -5 -20 97 -103 127 -103 23 0 25 3 21 29 -3 22 1 32 17 41
26 13 17 34 -11 27 -12 -3 -22 0 -25 10 -4 11 -15 13 -37 10 -17 -3 -25 -3
-18 0 6 2 10 9 6 14 -3 5 14 9 36 9 32 0 41 3 37 14 -3 7 0 19 6 25 8 8 -20
11 -108 11 l-119 0 30 -32z"/>
<path d="M1115 1670 c3 -5 8 -10 11 -10 2 0 4 5 4 10 0 6 -5 10 -11 10 -5 0
-7 -4 -4 -10z"/>
<path d="M2023 1664 c-3 -7 -14 -16 -25 -20 -16 -5 -18 -8 -7 -15 9 -5 17 -3
22 6 4 8 14 15 21 15 8 0 16 6 19 13 3 8 -2 14 -10 14 -8 0 -17 -6 -20 -13z"/>
<path d="M2390 1659 c0 -11 4 -18 10 -14 5 3 7 12 3 20 -7 21 -13 19 -13 -6z"/>
<path d="M2540 1665 c0 -8 -6 -16 -12 -16 -56 -5 -74 -11 -105 -36 -19 -15
-46 -34 -60 -41 -25 -14 -24 -19 15 -60 11 -12 13 -25 15 -105 1 -15 6 -26 11
-24 7 2 10 32 8 75 l-4 72 44 20 c23 10 67 22 96 26 51 6 52 7 52 40 0 18 7
40 16 48 14 15 11 16 -30 16 -34 0 -46 -4 -46 -15z"/>
<path d="M2870 1660 c0 -5 4 -10 9 -10 6 0 13 5 16 10 3 6 -1 10 -9 10 -9 0
-16 -4 -16 -10z"/>
<path d="M2118 1643 c-9 -2 -24 -16 -34 -31 -13 -20 -14 -24 -2 -15 8 7 17 11
20 8 3 -3 13 4 23 15 20 22 18 28 -7 23z"/>
<path d="M2940 1618 c-30 -16 -93 -50 -140 -74 -47 -25 -110 -59 -140 -75 -30
-17 -112 -60 -182 -96 -71 -37 -128 -70 -128 -75 0 -13 21 -50 37 -66 8 -8 13
-36 13 -69 0 -53 1 -55 23 -49 12 3 29 6 37 6 12 1 11 3 -2 11 -20 11 -25 80
-9 122 9 23 45 35 146 49 13 2 22 13 25 33 4 26 12 31 65 48 33 10 85 18 115
18 50 1 57 3 72 29 12 21 31 33 72 46 l56 18 0 78 c0 43 -1 78 -2 77 -2 0 -28
-14 -58 -31z"/>
<path d="M2229 1613 c-13 -17 -13 -17 6 -3 11 8 22 16 24 17 2 2 0 3 -6 3 -6
0 -17 -8 -24 -17z"/>
<path d="M1010 1610 c0 -5 5 -10 11 -10 5 0 7 5 4 10 -3 6 -8 10 -11 10 -2 0
-4 -4 -4 -10z"/>
<path d="M1953 1605 c0 -8 4 -15 9 -15 4 0 8 7 8 15 0 8 -4 15 -8 15 -5 0 -9
-7 -9 -15z"/>
<path d="M930 1586 c0 -2 6 -9 13 -15 10 -8 14 -7 14 4 0 8 -6 15 -14 15 -7 0
-13 -2 -13 -4z"/>
<path d="M1948 1573 c7 -3 16 -2 19 1 4 3 -2 6 -13 5 -11 0 -14 -3 -6 -6z"/>
<path d="M2045 1558 c-8 -10 -10 -18 -5 -18 6 0 10 -5 10 -11 0 -6 -6 -9 -13
-6 -20 8 -47 -17 -36 -34 6 -10 9 -10 9 -1 0 6 11 12 25 12 20 0 25 5 25 26 0
17 6 28 20 31 26 7 26 19 0 19 -10 0 -26 -8 -35 -18z"/>
<path d="M410 1521 c0 -28 6 -44 19 -53 10 -7 20 -22 22 -33 3 -16 15 -21 57
-26 54 -7 82 -22 82 -44 0 -6 25 -17 55 -24 45 -10 56 -17 61 -37 3 -13 14
-24 23 -24 9 0 27 -7 40 -16 16 -11 34 -15 59 -10 26 4 32 2 22 -4 -9 -6 -10
-10 -3 -10 6 0 14 -15 16 -32 4 -32 4 -32 5 5 2 25 7 37 17 37 8 0 15 5 15 10
0 6 -10 10 -23 10 -13 0 -44 14 -70 31 -26 17 -52 27 -58 23 -8 -4 -9 -3 -5 4
6 10 -158 126 -296 211 l-38 23 0 -41z"/>
<path d="M975 1539 c-4 -6 -5 -12 -2 -15 2 -3 7 2 10 11 7 17 1 20 -8 4z"/>
<path d="M2180 1539 c0 -5 9 -9 20 -9 11 0 20 2 20 4 0 2 -9 6 -20 9 -11 3
-20 1 -20 -4z"/>
<path d="M1881 1512 c-13 -25 -14 -32 -2 -32 9 0 23 41 16 48 -2 2 -8 -5 -14
-16z"/>
<path d="M0 1452 l0 -71 38 -6 c92 -15 166 -35 178 -47 19 -20 28 -129 12
-151 -12 -16 -19 -17 -65 -7 -29 7 -61 10 -70 8 -10 -2 25 -12 77 -22 52 -9
104 -19 116 -22 33 -8 57 22 49 63 -3 18 -2 39 2 46 4 6 9 23 10 37 1 14 5 44
9 67 6 42 6 42 -33 52 -30 8 -184 67 -310 118 -10 4 -13 -13 -13 -65z"/>
<path d="M90 1500 c20 -13 33 -13 25 0 -3 6 -14 10 -23 10 -15 0 -15 -2 -2
-10z"/>
<path d="M1000 1500 c0 -5 5 -10 11 -10 5 0 7 5 4 10 -3 6 -8 10 -11 10 -2 0
-4 -4 -4 -10z"/>
<path d="M1130 1471 c0 -12 4 -19 10 -16 6 3 10 -2 10 -12 1 -22 36 -66 50
-61 6 2 -1 15 -15 30 -14 15 -25 31 -25 35 0 4 -7 17 -15 27 -15 19 -15 19
-15 -3z"/>
<path d="M835 1456 l30 -26 -45 -1 -45 -1 43 -10 c30 -6 46 -16 51 -31 9 -22
9 -21 21 6 8 15 11 29 9 31 -2 2 -24 15 -49 30 l-45 27 30 -25z"/>
<path d="M2125 1470 c-19 -8 -19 -9 3 -9 12 -1 22 4 22 9 0 6 -1 10 -2 9 -2 0
-12 -4 -23 -9z"/>
<path d="M960 1450 c6 -11 16 -20 22 -20 6 0 3 9 -7 20 -10 11 -20 20 -22 20
-2 0 1 -9 7 -20z"/>
<path d="M1050 1449 c0 -5 11 -9 25 -9 14 0 25 2 25 4 0 2 -11 6 -25 8 -14 3
-25 1 -25 -3z"/>
<path d="M1846 1443 c-6 -14 -5 -15 5 -6 7 7 10 15 7 18 -3 3 -9 -2 -12 -12z"/>
<path d="M2024 1393 c-35 -36 -35 -42 1 -35 25 4 35 22 14 22 -8 0 -8 4 0 14
7 8 21 12 31 9 12 -3 20 0 20 6 0 7 -5 9 -11 5 -6 -3 -14 -3 -18 2 -3 5 -20
-5 -37 -23z"/>
<path d="M1820 1410 c0 -5 5 -10 10 -10 6 0 10 5 10 10 0 6 -4 10 -10 10 -5 0
-10 -4 -10 -10z"/>
<path d="M2218 1409 c-22 -12 -24 -31 -3 -23 11 5 13 2 9 -10 -7 -18 -8 -18
-44 -20 -35 -2 -56 -16 -40 -26 18 -11 1 -33 -20 -27 -12 3 -20 -2 -23 -14 -3
-11 -10 -19 -17 -19 -6 0 -8 5 -3 13 8 13 -35 -13 -67 -41 -14 -12 -16 -19 -8
-29 12 -15 59 -7 71 14 4 7 17 13 27 13 11 0 24 9 30 20 6 11 19 20 29 20 10
0 21 9 24 19 3 11 17 22 36 26 22 5 31 12 31 26 0 10 5 19 10 19 6 0 10 11 10
25 0 27 -21 33 -52 14z"/>
<path d="M1020 1387 c0 -10 41 -49 46 -45 2 3 -7 15 -21 28 -14 13 -25 20 -25
17z"/>
<path d="M1130 1377 c0 -22 34 -69 44 -60 3 3 6 -1 6 -10 0 -9 5 -17 10 -17
18 0 10 28 -13 47 -13 10 -28 27 -35 38 -11 18 -11 19 -12 2z"/>
<path d="M940 1355 c0 -8 7 -15 16 -15 14 0 14 3 4 15 -7 8 -14 15 -16 15 -2
0 -4 -7 -4 -15z"/>
<path d="M1847 1334 c-10 -13 -14 -24 -9 -24 13 0 35 27 30 39 -1 5 -11 -2
-21 -15z"/>
<path d="M1957 1353 c-11 -10 -8 -43 3 -43 6 0 10 11 10 25 0 26 -2 29 -13 18z"/>
<path d="M1225 1320 c9 -31 25 -50 25 -29 0 7 -8 23 -16 34 -16 19 -16 19 -9
-5z"/>
<path d="M980 1316 c0 -9 6 -16 13 -16 13 0 47 -35 47 -48 0 -13 49 -36 57
-28 7 7 -27 41 -89 87 -23 17 -28 18 -28 5z"/>
<path d="M850 1300 c0 -5 5 -10 10 -10 6 0 10 5 10 10 0 6 -4 10 -10 10 -5 0
-10 -4 -10 -10z"/>
<path d="M1767 1303 c-4 -3 -7 -11 -7 -17 0 -6 5 -5 12 2 6 6 9 14 7 17 -3 3
-9 2 -12 -2z"/>
<path d="M410 1255 c0 -29 5 -37 25 -45 14 -5 25 -16 25 -24 0 -11 16 -17 51
-22 37 -5 53 -12 56 -24 3 -11 11 -16 22 -13 10 2 35 -3 56 -11 20 -9 52 -16
69 -16 18 0 36 -4 41 -9 6 -5 28 -11 50 -13 l40 -3 1 -44 c1 -56 24 -69 24
-14 0 21 7 47 15 57 21 27 19 33 -12 41 -31 7 -201 70 -248 90 -16 8 -52 23
-79 35 -47 21 -124 50 -132 50 -2 0 -4 -16 -4 -35z"/>
<path d="M2919 1269 l-24 -21 25 6 c14 4 37 9 53 12 15 4 27 10 27 15 0 17
-58 9 -81 -12z"/>
<path d="M1150 1263 c0 -14 48 -48 56 -40 3 3 -5 11 -18 18 -12 6 -26 17 -30
23 -5 8 -8 7 -8 -1z"/>
<path d="M1220 1260 c0 -17 17 -47 23 -40 2 3 -2 16 -10 30 -7 14 -13 18 -13
10z"/>
<path d="M2310 1255 c-2 -19 -8 -259 -10 -425 -1 -55 -4 -69 -10 -53 -11 26
-24 30 -155 39 -55 3 -110 7 -122 8 -12 1 -25 5 -28 8 -11 10 -35 -3 -35 -18
0 -8 -5 -13 -12 -12 -6 2 -13 -6 -15 -17 -2 -15 -1 -16 5 -5 9 20 47 23 61 6
8 -9 24 -12 49 -9 21 3 83 -4 139 -16 56 -12 104 -21 107 -21 3 0 6 -34 6 -75
0 -41 -3 -75 -7 -75 -4 0 -64 22 -135 50 -70 28 -135 50 -143 50 -8 0 -15 9
-15 20 0 17 3 19 19 11 16 -9 17 -7 13 15 -3 18 -8 22 -17 14 -6 -5 -15 -7
-18 -3 -4 3 -7 1 -7 -5 0 -7 -7 -12 -15 -12 -7 0 -19 -8 -24 -17 -9 -15 -11
-13 -12 12 -1 24 -3 25 -6 8 -2 -13 -6 -23 -9 -23 -8 0 -127 60 -140 71 -8 6
-14 8 -14 4 0 -4 -12 0 -26 10 -14 9 -28 14 -32 11 -3 -3 0 -6 6 -6 7 0 12 -7
12 -16 0 -8 5 -12 10 -9 6 4 17 1 25 -5 8 -7 15 -9 15 -6 0 4 8 2 18 -3 11 -6
19 -23 20 -47 l3 -37 -26 17 c-14 9 -25 13 -25 8 0 -5 11 -14 25 -20 25 -12
25 -12 24 -149 l-1 -138 -23 48 c-19 40 -21 55 -13 83 9 34 4 59 -11 49 -5 -2
-6 -16 -3 -30 2 -14 0 -25 -7 -25 -9 0 -14 11 -26 73 -3 18 10 23 20 7 4 -6
12 -5 21 4 17 17 18 36 3 36 -5 0 -7 5 -4 10 3 6 1 10 -5 10 -6 0 -25 14 -42
30 -17 17 -33 29 -35 26 -3 -2 14 -22 37 -44 47 -44 53 -78 8 -43 -17 13 -29
17 -33 11 -14 -22 -25 3 -21 48 2 26 -1 53 -6 60 -20 23 0 24 31 1 17 -12 33
-20 37 -17 3 4 -13 18 -35 32 -39 25 -57 54 -26 42 8 -3 15 -2 15 3 0 4 -15
12 -34 18 l-34 10 3 -33 c4 -35 -8 -53 -21 -33 -3 6 -1 15 5 19 9 5 8 10 -3
19 -12 10 -15 7 -18 -21 -5 -51 18 -118 55 -157 46 -50 96 -129 112 -181 4
-13 13 -30 20 -37 8 -7 21 -36 30 -65 10 -29 23 -60 30 -68 7 -8 18 -34 24
-57 6 -23 17 -48 24 -55 6 -7 18 -31 26 -53 18 -52 27 -62 61 -70 16 -4 32
-15 35 -26 5 -14 16 -19 41 -19 38 0 39 2 22 33 -10 20 -10 21 5 8 10 -7 17
-20 17 -27 0 -8 7 -14 16 -14 9 0 13 5 10 13 -3 6 -9 20 -12 30 -4 9 -10 17
-15 17 -5 0 -6 8 -2 18 3 9 3 14 -2 10 -4 -4 -14 0 -21 10 -18 23 -17 32 1 32
8 0 15 5 15 10 0 6 -18 10 -40 10 -35 0 -40 3 -40 23 0 18 2 19 10 7 8 -12 10
-9 10 12 0 15 5 30 10 33 6 4 8 16 4 27 -4 12 -1 24 7 29 10 6 5 8 -13 5 -20
-3 -28 0 -28 10 0 8 4 14 9 14 4 0 6 11 3 25 -3 18 1 27 14 32 14 5 40 -16
117 -98 54 -57 103 -114 108 -126 5 -13 15 -23 24 -23 12 0 15 -13 15 -60 l0
-60 72 0 c70 0 71 0 54 19 -10 11 -27 21 -39 23 -11 2 -23 9 -25 17 -3 10 0
12 12 8 9 -4 16 -2 16 3 0 6 -7 10 -15 10 -8 0 -15 5 -15 10 0 6 11 8 24 4 24
-6 25 -4 28 53 3 57 4 58 34 61 23 2 43 -6 80 -34 27 -21 55 -46 62 -56 7 -10
22 -18 33 -18 10 0 36 -15 56 -33 61 -53 91 -68 129 -65 l36 3 -79 52 c-43 29
-141 95 -218 147 -77 52 -143 92 -147 90 -18 -11 -38 11 -38 42 0 31 14 47 22
25 2 -5 15 -13 31 -16 25 -7 27 -5 27 23 0 50 12 93 28 99 24 10 120 -26 141
-52 13 -17 29 -25 50 -25 18 0 65 -14 106 -32 75 -32 83 -42 86 -98 l1 -25 7
24 c8 30 29 34 89 15 63 -19 62 -19 62 25 0 34 -4 40 -27 45 -28 8 -275 97
-333 121 -129 54 -224 85 -257 85 -30 0 -33 3 -33 28 0 38 7 43 38 26 43 -22
51 -18 45 20 -3 19 -2 51 1 70 6 32 10 35 49 41 29 5 57 1 87 -10 25 -10 84
-21 132 -25 86 -9 148 -30 148 -52 0 -6 9 -3 19 6 16 14 30 16 75 11 l56 -7 0
56 c0 47 -3 56 -17 56 -10 0 -67 4 -128 10 -137 12 -215 17 -377 26 l-128 7 0
-36 c0 -20 -5 -39 -10 -42 -6 -4 -10 7 -9 27 1 59 -18 514 -21 493z m-663
-457 c-3 -8 -6 -5 -6 6 -1 11 2 17 5 13 3 -3 4 -12 1 -19z m0 -40 c-3 -8 -6
-5 -6 6 -1 11 2 17 5 13 3 -3 4 -12 1 -19z m-27 -18 c0 -5 -4 -10 -10 -10 -5
0 -10 5 -10 10 0 6 5 10 10 10 6 0 10 -4 10 -10z m27 -22 c-3 -8 -6 -5 -6 6
-1 11 2 17 5 13 3 -3 4 -12 1 -19z m720 -35 c-3 -10 -5 -2 -5 17 0 19 2 27 5
18 2 -10 2 -26 0 -35z m-482 20 c29 -14 35 -22 35 -49 0 -40 -21 -49 -51 -23
-12 10 -28 19 -36 19 -16 0 -16 10 -3 44 11 31 10 31 55 9z m97 -73 c-5 -37
-27 -34 -27 3 -1 18 4 27 15 27 13 0 15 -7 12 -30z m123 -4 c73 -35 122 -56
132 -56 4 -1 18 -9 31 -20 20 -17 22 -26 21 -99 -2 -45 -4 -81 -7 -81 -17 0
-62 38 -62 52 0 10 -4 18 -10 18 -5 0 -10 -5 -10 -11 0 -5 -43 19 -95 55 -52
37 -99 66 -105 66 -5 0 -10 9 -10 21 0 15 5 19 15 15 12 -4 15 3 15 29 0 43
14 45 85 11z m-389 -20 c0 -15 -5 -21 -10 -16 -5 5 -6 16 -3 24 9 23 15 19 13
-8z m205 -45 c8 -22 -1 -91 -13 -91 -5 0 -2 -10 6 -22 9 -12 16 -40 16 -62 l0
-39 -27 24 c-15 13 -22 17 -15 8 7 -9 11 -23 10 -30 -2 -7 4 -13 12 -14 9 0
15 -11 16 -32 1 -25 -2 -30 -15 -26 -14 4 -13 3 2 -10 9 -8 17 -17 17 -20 0
-4 -8 -3 -17 0 -15 5 -16 4 -7 -8 12 -16 25 -49 20 -49 -8 0 -96 170 -96 185
0 8 5 15 10 15 6 0 10 -4 10 -10 0 -5 5 -10 11 -10 5 0 7 5 3 11 -3 6 -1 15 5
19 9 5 7 11 -5 21 -16 12 -17 12 -11 -3 4 -10 2 -18 -4 -18 -7 0 -9 10 -5 24
4 16 0 30 -9 40 -17 17 -5 66 17 66 7 1 3 9 -9 19 -22 19 -22 58 1 73 11 8 68
-37 77 -61z m4 39 c3 -5 2 -10 -4 -10 -5 0 -13 5 -16 10 -3 6 -2 10 4 10 5 0
13 -4 16 -10z m57 -100 c-6 -41 -22 -38 -22 5 0 24 4 33 13 29 9 -3 12 -16 9
-34z m183 -82 l125 -93 0 -68 0 -69 -27 6 c-16 4 -37 18 -48 31 -12 14 -24 25
-29 25 -8 0 -196 188 -196 196 0 2 7 4 15 4 10 0 15 10 15 30 0 17 5 30 10 30
6 0 67 -42 135 -92z m-183 -26 c3 -9 1 -26 -3 -37 -9 -23 -9 -22 -15 23 -5 33
10 45 18 14z m-5 -144 c-3 -7 -5 -2 -5 12 0 14 2 19 5 13 2 -7 2 -19 0 -25z
m313 -88 c0 -5 -4 -10 -9 -10 -6 0 -13 5 -16 10 -3 6 1 10 9 10 9 0 16 -4 16
-10z"/>
<path d="M2088 533 c7 -3 16 -2 19 1 4 3 -2 6 -13 5 -11 0 -14 -3 -6 -6z"/>
<path d="M2158 493 c7 -3 16 -2 19 1 4 3 -2 6 -13 5 -11 0 -14 -3 -6 -6z"/>
<path d="M2195 462 c15 -16 65 -26 65 -13 0 6 -9 11 -19 11 -11 0 -28 3 -38 6
-12 5 -15 4 -8 -4z"/>
<path d="M1860 446 c0 -2 7 -7 16 -10 8 -3 12 -2 9 4 -6 10 -25 14 -25 6z"/>
<path d="M1846 348 c3 -4 12 -8 20 -8 8 0 14 4 14 8 0 4 -9 8 -19 8 -11 0 -17
-4 -15 -8z"/>
<path d="M2038 423 c7 -3 16 -2 19 1 4 3 -2 6 -13 5 -11 0 -14 -3 -6 -6z"/>
<path d="M2130 336 c0 -2 7 -6 15 -10 8 -3 15 -1 15 4 0 6 -7 10 -15 10 -8 0
-15 -2 -15 -4z"/>
<path d="M2175 270 c3 -5 13 -10 21 -10 8 0 14 5 14 10 0 6 -9 10 -21 10 -11
0 -17 -4 -14 -10z"/>
<path d="M940 1205 c0 -27 7 -34 65 -64 57 -30 65 -38 65 -63 0 -15 5 -28 10
-28 6 0 10 13 10 29 0 16 3 36 6 44 4 11 -5 19 -30 28 -20 7 -36 16 -36 21 0
4 -13 14 -30 23 -16 9 -30 12 -30 8 0 -4 -7 2 -15 13 -14 18 -14 18 -15 -11z"/>
<path d="M1825 1220 c-3 -5 -1 -10 4 -10 6 0 11 5 11 10 0 6 -2 10 -4 10 -3 0
-8 -4 -11 -10z"/>
<path d="M1963 1223 c-15 -5 -18 -43 -4 -43 9 0 26 39 19 44 -1 2 -9 1 -15 -1z"/>
<path d="M2698 1206 c-25 -6 -50 -15 -55 -20 -11 -12 63 2 102 19 36 16 17 17
-47 1z"/>
<path d="M1130 1202 c0 -5 7 -12 15 -16 8 -3 15 -12 15 -19 0 -8 11 -19 25
-25 21 -10 25 -9 25 3 0 8 -4 15 -9 15 -5 0 -16 6 -23 13 -29 27 -48 39 -48
29z"/>
<path d="M2140 1145 c-135 -65 -160 -74 -160 -55 0 5 -7 7 -15 4 -8 -4 -15
-15 -15 -25 0 -10 7 -19 15 -19 8 0 15 4 15 8 0 4 16 6 35 4 21 -3 35 0 35 7
0 6 11 11 25 11 14 0 25 5 25 10 0 6 13 10 29 10 17 0 33 5 36 10 3 6 19 10
36 10 19 0 29 5 29 15 0 9 9 15 25 15 21 0 25 5 25 30 0 17 -1 30 -2 30 -2 0
-64 -29 -138 -65z"/>
<path d="M1280 1188 c0 -9 5 -20 10 -23 13 -8 13 5 0 25 -8 13 -10 13 -10 -2z"/>
<path d="M2938 1195 c-6 -6 -129 -37 -233 -59 -115 -24 -168 -38 -181 -47 -9
-8 -127 -28 -162 -29 -17 0 -8 -53 15 -89 11 -17 14 -38 9 -75 -3 -30 -2 -45
3 -37 5 8 10 9 12 3 6 -16 599 -29 599 -13 0 7 -25 11 -74 11 -41 0 -77 4 -80
9 -3 4 -18 6 -33 4 -16 -2 -101 -7 -190 -10 l-162 -6 -6 25 c-4 14 -5 42 -3
64 4 45 18 51 116 53 35 1 72 6 84 12 17 9 94 21 301 46 l47 6 0 48 c0 57 4
55 -104 33 -42 -8 -82 -14 -88 -12 -6 2 33 13 87 24 54 10 100 25 103 32 4 12
-48 18 -60 7z m-169 -69 c-7 -7 -152 -36 -174 -35 -11 1 18 9 65 19 90 19 116
23 109 16z"/>
<path d="M1232 1170 c7 -11 17 -20 22 -20 5 0 1 9 -9 20 -10 11 -20 20 -22 20
-2 0 2 -9 9 -20z"/>
<path d="M1773 1160 c-27 -21 -29 -30 -8 -30 13 0 41 37 33 45 -2 2 -13 -5
-25 -15z"/>
<path d="M1874 1165 c-4 -8 -10 -15 -16 -15 -5 0 -16 -7 -24 -15 -14 -13 -14
-15 -1 -15 26 0 47 12 47 26 0 8 5 14 10 14 6 0 10 5 10 10 0 16 -20 12 -26
-5z"/>
<path d="M1727 1163 c-4 -3 -7 -11 -7 -17 0 -6 5 -5 12 2 6 6 9 14 7 17 -3 3
-9 2 -12 -2z"/>
<path d="M2490 1140 c-18 -12 -2 -12 25 0 13 6 15 9 5 9 -8 0 -22 -4 -30 -9z"/>
<path d="M1220 1116 c0 -9 7 -19 15 -23 25 -9 27 2 5 22 -18 17 -20 17 -20 1z"/>
<path d="M1290 1120 c0 -5 5 -10 11 -10 5 0 7 5 4 10 -3 6 -8 10 -11 10 -2 0
-4 -4 -4 -10z"/>
<path d="M0 1047 l0 -74 101 -6 c55 -3 103 -8 106 -11 3 -2 8 -34 10 -69 4
-52 2 -66 -12 -81 -17 -17 -14 -17 79 -15 92 3 96 4 89 23 -4 12 -7 73 -8 136
l0 115 -125 21 c-69 12 -151 25 -182 28 l-58 7 0 -74z"/>
<path d="M1130 1102 c0 -15 46 -42 73 -42 18 0 4 19 -23 30 -16 7 -30 16 -30
21 0 5 -4 9 -10 9 -5 0 -10 -8 -10 -18z"/>
<path d="M1958 1113 c7 -3 16 -2 19 1 4 3 -2 6 -13 5 -11 0 -14 -3 -6 -6z"/>
<path d="M1720 1089 c0 -5 5 -7 10 -4 6 3 10 8 10 11 0 2 -4 4 -10 4 -5 0 -10
-5 -10 -11z"/>
<path d="M1280 1076 c0 -17 16 -30 23 -19 3 5 -1 14 -9 21 -12 10 -14 10 -14
-2z"/>
<path d="M1770 1075 c-10 -12 -10 -15 3 -15 19 0 31 16 18 24 -5 3 -14 -1 -21
-9z"/>
<path d="M940 1062 c0 -15 13 -22 58 -32 31 -7 65 -18 76 -23 13 -6 21 -5 27
4 6 10 -12 20 -69 41 -90 33 -92 33 -92 10z"/>
<path d="M1863 1052 c-18 -9 -33 -22 -33 -29 0 -16 3 -16 45 1 19 8 35 22 35
30 0 19 -4 18 -47 -2z"/>
<path d="M1220 1041 c0 -11 31 -24 39 -16 3 3 -1 10 -9 15 -19 12 -30 12 -30
1z"/>
<path d="M1665 1040 c-3 -5 -1 -10 4 -10 6 0 11 5 11 10 0 6 -2 10 -4 10 -3 0
-8 -4 -11 -10z"/>
<path d="M918 909 c-2 -74 -3 -162 -3 -196 0 -66 -6 -77 -45 -88 -19 -5 -21
-4 -10 4 8 6 11 11 5 11 -14 0 -43 -20 -30 -20 13 -1 -113 -56 -145 -64 -14
-3 -7 3 15 13 50 24 43 26 -19 5 -27 -9 -43 -19 -38 -23 6 -4 -6 -7 -26 -7
-20 -1 -59 -11 -87 -24 -27 -13 -54 -24 -60 -25 -5 0 -18 -5 -29 -10 -22 -10
-38 11 -30 38 3 10 -1 19 -10 23 -18 7 -22 49 -6 59 6 3 10 19 10 34 0 25 4
28 73 45 39 10 90 24 112 32 22 8 56 13 75 12 19 -1 68 2 108 7 l72 8 0 -43
c0 -34 3 -41 16 -36 9 3 18 6 20 6 2 0 4 5 4 11 0 5 -4 7 -10 4 -16 -10 -12
62 5 79 17 16 20 36 6 36 -5 0 -71 -6 -147 -14 -271 -28 -334 -30 -334 -12 0
9 -5 16 -10 16 -12 0 -9 -22 4 -31 13 -10 -2 -59 -19 -59 -8 0 -15 8 -15 18 0
16 -9 17 -73 15 -39 -2 -102 -7 -139 -13 -37 -5 -87 -10 -112 -10 l-46 0 0
-66 c0 -59 2 -65 18 -59 46 18 131 35 173 35 56 0 59 -5 59 -98 l0 -67 51 4
c38 2 49 6 45 17 -3 8 1 14 10 14 10 0 14 -6 10 -15 -3 -8 0 -14 5 -12 6 1 13
-10 14 -25 3 -23 -1 -29 -23 -33 -43 -9 -176 -48 -187 -55 -5 -4 -47 -22 -92
-40 l-83 -32 0 -44 c0 -24 2 -44 5 -44 2 0 41 16 85 36 97 42 106 39 116 -47
5 -48 10 -59 25 -59 30 0 123 22 135 31 8 6 14 4 18 -7 10 -26 7 -41 -5 -24
-8 12 -9 9 -5 -12 5 -23 2 -29 -18 -34 -13 -3 -48 -21 -77 -40 l-53 -34 102 0
102 0 0 73 c0 71 1 72 35 94 19 13 38 23 42 23 5 0 19 12 33 27 14 14 44 35
67 45 23 10 45 23 49 29 12 20 198 136 226 141 25 5 27 3 22 -26 -3 -17 -7
-37 -10 -43 -2 -7 3 -13 11 -13 21 0 19 -27 -2 -34 -10 -4 -38 -25 -63 -48
-86 -81 -182 -158 -191 -153 -12 8 -99 -16 -99 -26 0 -5 12 -7 28 -3 19 4 23
3 13 -4 -9 -7 -10 -11 -2 -13 7 -3 3 -12 -10 -23 -18 -15 -21 -16 -16 -2 6 16
-8 24 -15 8 -1 -4 -16 -17 -32 -30 l-29 -22 38 0 c29 0 51 10 91 41 29 22 54
44 56 47 2 4 32 32 68 62 35 30 78 67 94 83 45 40 48 38 60 -33 6 -35 6 -36
-39 -48 -25 -6 -45 -16 -45 -22 0 -5 5 -10 10 -10 19 0 10 -29 -15 -48 -13
-11 -22 -22 -19 -24 2 -3 -11 -13 -31 -22 -19 -9 -35 -18 -35 -19 0 -2 11 -4
23 -5 25 -2 46 15 86 67 27 35 41 40 41 12 0 -11 7 -26 15 -34 13 -13 13 -16
-1 -27 -8 -7 -12 -15 -9 -18 3 -3 15 3 27 14 19 17 21 17 15 2 -6 -16 1 -18
63 -18 38 0 72 5 75 10 4 6 -5 10 -19 10 -29 0 -31 3 -14 33 7 12 13 29 15 38
3 17 80 139 93 149 4 3 11 16 15 30 8 26 53 101 65 110 4 3 13 22 19 42 7 21
30 59 52 85 21 26 39 53 39 60 0 16 40 84 60 103 21 19 46 65 31 56 -8 -5 -11
12 -11 52 l0 60 -36 -8 c-20 -5 -41 -13 -47 -19 -18 -18 -44 -13 -50 9 -4 15
0 20 13 20 22 0 75 19 69 24 -2 3 -27 0 -54 -5 -133 -26 -159 -29 -168 -16 -6
8 -7 6 -3 -5 4 -15 -1 -18 -28 -18 -52 0 -146 -22 -146 -34 0 -7 -3 -7 -8 1
-4 7 -9 65 -11 130 -1 65 -5 120 -7 122 -2 2 -5 -56 -6 -130z m345 -100 c5
-18 -4 -25 -58 -50 -36 -16 -67 -29 -70 -29 -3 0 -5 15 -5 34 0 31 4 36 43 49
60 22 84 21 90 -4z m127 -1 c0 -4 -11 -10 -25 -14 -23 -6 -24 -8 -9 -19 16
-11 15 -12 -2 -19 -17 -7 -17 -9 -2 -15 14 -5 13 -10 -9 -36 l-26 -30 7 30 8
30 -22 -28 c-12 -15 -26 -25 -31 -22 -16 11 -9 31 15 45 14 7 28 20 31 28 5
13 2 12 -14 -2 -13 -11 -27 -16 -38 -12 -9 4 -14 4 -10 0 4 -4 2 -13 -4 -21
-18 -21 -20 -83 -3 -83 8 0 14 -4 14 -10 0 -5 -3 -10 -7 -10 -9 0 -33 -48 -33
-66 0 -6 -19 -33 -42 -60 l-43 -48 -5 35 c-4 30 0 39 38 75 23 22 42 45 42 49
0 5 -18 -8 -39 -29 l-40 -39 -7 37 c-7 40 2 52 58 78 15 7 29 20 31 29 4 13
-5 10 -36 -12 -22 -16 -43 -29 -46 -29 -4 0 -8 15 -9 33 -2 31 1 35 40 53 24
10 46 22 49 27 3 4 16 9 27 10 12 1 22 4 22 8 0 4 10 11 22 15 12 3 28 13 36
20 14 14 62 16 62 2z m-270 -2 c0 -3 -4 -16 -10 -31 -7 -17 -7 -24 0 -20 6 3
10 -3 10 -13 0 -11 -6 -19 -12 -19 -17 2 -145 -60 -153 -74 -14 -21 4 -20 54
5 56 29 77 32 94 14 15 -17 21 -48 8 -48 -5 0 -38 -25 -74 -55 -61 -52 -85
-65 -89 -47 -4 21 -7 65 -8 132 -2 113 -1 120 13 114 7 -2 32 2 56 11 24 8 54
15 67 15 13 0 24 5 24 10 0 6 5 10 10 10 6 0 10 -2 10 -4z m270 -96 c0 -5 -5
-10 -11 -10 -5 0 -7 5 -4 10 3 6 8 10 11 10 2 0 4 -4 4 -10z m-126 -26 c3 -8
2 -12 -4 -9 -6 3 -10 10 -10 16 0 14 7 11 14 -7z m40 -28 c-3 -9 -12 -12 -22
-9 -15 6 -9 11 25 22 1 1 0 -5 -3 -13z m29 -11 c-7 -21 -13 -19 -13 6 0 11 4
18 10 14 5 -3 7 -12 3 -20z m-449 -71 c3 -9 6 -27 6 -40 0 -13 5 -24 10 -24 6
0 10 -7 10 -15 0 -8 -4 -15 -8 -15 -4 0 -71 -39 -148 -86 -76 -47 -160 -97
-187 -111 -26 -14 -50 -29 -53 -34 -3 -5 -10 -9 -15 -9 -6 0 -7 5 -3 11 5 8
-6 9 -35 4 l-41 -7 0 80 0 79 58 23 c31 12 77 30 102 39 25 9 56 24 70 33 14
9 43 21 65 27 22 6 58 22 80 35 47 28 80 32 89 10z m216 -13 c0 -11 5 -21 12
-23 6 -2 -28 -43 -75 -91 l-87 -87 0 58 0 58 62 52 c67 56 88 63 88 33z m149
-55 c-7 -14 -16 -26 -21 -26 -5 0 -1 13 8 30 21 35 30 33 13 -4z m-141 -52
c11 -22 8 -31 -28 -84 -22 -32 -44 -62 -50 -65 -5 -3 -10 -11 -10 -17 0 -13
35 26 58 65 22 36 42 35 42 -3 0 -16 -4 -30 -10 -30 -5 0 -10 -9 -10 -20 0
-12 -7 -20 -17 -20 -15 0 -15 -2 -4 -9 12 -7 10 -14 -8 -36 -11 -15 -21 -23
-21 -16 0 6 -5 11 -11 11 -7 0 -9 -9 -6 -22 4 -15 -5 -39 -29 -75 -38 -57 -49
-66 -41 -30 4 12 2 28 -2 36 -13 21 3 66 23 65 16 -2 16 -1 0 17 -18 20 -22
30 -31 84 -4 27 3 40 64 103 37 40 71 72 74 72 3 0 11 -11 17 -26z m94 -27
c-12 -13 -22 -27 -22 -31 0 -4 -9 -19 -20 -33 -11 -14 -20 -23 -20 -19 0 22
69 120 78 111 3 -3 -4 -15 -16 -28z m-274 -182 c0 -14 -4 -28 -9 -31 -5 -3 -9
9 -9 25 0 17 4 31 9 31 5 0 9 -11 9 -25z"/>
<path d="M838 483 c6 -2 18 -2 25 0 6 3 1 5 -13 5 -14 0 -19 -2 -12 -5z"/>
<path d="M675 395 c-40 -14 -40 -14 -5 -8 19 3 42 9 50 14 22 12 1 9 -45 -6z"/>
<path d="M570 333 c-39 -7 -43 -18 -6 -18 18 0 39 6 45 13 13 13 9 13 -39 5z"/>
<path d="M960 399 c0 -5 5 -7 10 -4 6 3 10 8 10 11 0 2 -4 4 -10 4 -5 0 -10
-5 -10 -11z"/>
<path d="M996 254 c-5 -14 -4 -15 9 -4 17 14 19 20 6 20 -5 0 -12 -7 -15 -16z"/>
<path d="M1000 180 c-13 -8 -12 -10 3 -10 9 0 17 5 17 10 0 12 -1 12 -20 0z"/>
<path d="M1725 1030 c4 -6 11 -8 16 -5 14 9 11 15 -7 15 -8 0 -12 -5 -9 -10z"/>
<path d="M412 988 c4 -39 21 -45 173 -59 289 -25 268 -20 263 -69 -2 -28 0
-40 9 -40 9 0 13 15 13 42 0 24 7 49 16 59 22 24 10 39 -30 39 -19 0 -124 14
-234 30 -111 17 -204 30 -207 30 -4 0 -5 -14 -3 -32z"/>
<path d="M1130 1007 c0 -14 28 -27 63 -27 25 0 21 17 -5 23 -13 2 -31 8 -40
12 -13 5 -18 3 -18 -8z"/>
<path d="M1295 1010 c3 -5 8 -10 11 -10 2 0 4 5 4 10 0 6 -5 10 -11 10 -5 0
-7 -4 -4 -10z"/>
<path d="M2800 1011 c0 -5 7 -12 16 -15 22 -9 24 -8 24 9 0 8 -9 15 -20 15
-11 0 -20 -4 -20 -9z"/>
<path d="M1766 1003 c-14 -4 -16 -7 -6 -13 15 -9 40 -2 40 11 0 9 -3 10 -34 2z"/>
<path d="M2119 983 c-116 -23 -126 -27 -121 -46 5 -18 11 -19 81 -14 42 4 104
12 139 18 59 11 62 12 62 40 0 35 6 35 -161 2z"/>
<path d="M1958 983 c7 -3 16 -2 19 1 4 3 -2 6 -13 5 -11 0 -14 -3 -6 -6z"/>
<path d="M1220 970 c0 -5 9 -10 21 -10 11 0 17 5 14 10 -3 6 -13 10 -21 10 -8
0 -14 -4 -14 -10z"/>
<path d="M1725 970 c4 -6 11 -8 16 -5 14 9 11 15 -7 15 -8 0 -12 -5 -9 -10z"/>
<path d="M1275 960 c3 -5 13 -10 21 -10 8 0 12 5 9 10 -3 6 -13 10 -21 10 -8
0 -12 -4 -9 -10z"/>
<path d="M1956 954 c-23 -22 -20 -43 4 -37 13 3 20 14 20 29 0 28 -3 29 -24 8z"/>
<path d="M1852 943 c-46 -6 -29 -23 24 -23 32 0 44 4 44 15 0 15 -5 15 -68 8z"/>
<path d="M942 919 c3 -22 8 -23 72 -24 59 -1 71 -4 77 -21 7 -18 8 -18 8 2 1
11 6 25 12 31 16 16 3 20 -89 28 -84 7 -84 7 -80 -16z"/>
<path d="M1130 915 c0 -8 20 -14 56 -17 33 -3 60 -11 65 -19 7 -11 9 -9 9 8 0
24 -9 28 -87 36 -31 4 -43 1 -43 -8z"/>
<path d="M1760 920 c0 -5 11 -10 25 -10 14 0 25 5 25 10 0 6 -11 10 -25 10
-14 0 -25 -4 -25 -10z"/>
<path d="M1730 910 c0 -5 5 -10 10 -10 6 0 10 5 10 10 0 6 -4 10 -10 10 -5 0
-10 -4 -10 -10z"/>
<path d="M1270 900 c0 -5 16 -9 35 -7 45 3 45 17 0 17 -19 0 -35 -4 -35 -10z"/>
<path d="M1698 903 c7 -3 16 -2 19 1 4 3 -2 6 -13 5 -11 0 -14 -3 -6 -6z"/>
<path d="M403 845 c0 -27 2 -38 4 -22 2 15 2 37 0 50 -2 12 -4 0 -4 -28z"/>
<path d="M1628 863 c7 -3 16 -2 19 1 4 3 -2 6 -13 5 -11 0 -14 -3 -6 -6z"/>
<path d="M1657 857 c-3 -8 10 -12 37 -13 22 -1 58 -4 79 -7 20 -3 37 -2 37 3
0 4 -26 11 -57 15 -32 4 -65 8 -74 10 -10 2 -19 -2 -22 -8z"/>
<path d="M1950 851 c0 -5 9 -7 20 -4 11 3 20 7 20 9 0 2 -9 4 -20 4 -11 0 -20
-4 -20 -9z"/>
<path d="M1058 843 c6 -2 18 -2 25 0 6 3 1 5 -13 5 -14 0 -19 -2 -12 -5z"/>
<path d="M2178 843 c12 -2 30 -2 40 0 9 3 -1 5 -23 4 -22 0 -30 -2 -17 -4z"/>
<path d="M1822 829 c2 -7 18 -13 36 -15 17 -2 36 -5 43 -6 6 -2 13 2 16 8 2 6
-10 14 -28 18 -47 9 -71 7 -67 -5z"/>
<path d="M2258 828 c9 -9 15 -9 24 0 9 9 7 12 -12 12 -19 0 -21 -3 -12 -12z"/>
<path d="M430 800 c0 -5 5 -10 10 -10 6 0 10 5 10 10 0 6 -4 10 -10 10 -5 0
-10 -4 -10 -10z"/>
<path d="M83 792 c-49 -2 -83 -7 -83 -13 0 -10 166 -6 177 4 9 10 -14 12 -94
9z"/>
<path d="M1815 789 c-4 -6 -5 -12 -2 -15 2 -3 7 2 10 11 7 17 1 20 -8 4z"/>
<path d="M1680 660 c0 -19 3 -21 12 -12 9 9 9 15 0 24 -9 9 -12 7 -12 -12z"/>
<path d="M2238 643 c6 -2 18 -2 25 0 6 3 1 5 -13 5 -14 0 -19 -2 -12 -5z"/>
<path d="M2465 580 c-6 -9 30 -17 121 -26 50 -5 65 -4 60 4 -4 7 -31 12 -59
12 -29 0 -67 4 -84 9 -18 5 -35 6 -38 1z"/>
<path d="M2682 519 c7 -4 50 -14 96 -21 81 -14 82 -14 82 6 0 20 -6 21 -95 22
-53 0 -90 -3 -83 -7z"/>
<path d="M2900 455 c0 -6 33 -19 73 -29 15 -3 27 -2 27 3 0 5 -20 14 -44 20
-51 13 -56 13 -56 6z"/>
<path d="M361 434 c0 -11 3 -14 6 -6 3 7 2 16 -1 19 -3 4 -6 -2 -5 -13z"/>
<path d="M278 433 c7 -3 16 -2 19 1 4 3 -2 6 -13 5 -11 0 -14 -3 -6 -6z"/>
<path d="M150 420 c-14 -4 -53 -8 -87 -9 -49 -1 -63 -4 -63 -16 0 -10 10 -15
33 -15 34 0 174 33 184 44 9 8 -37 6 -67 -4z"/>
<path d="M2466 300 c16 -16 108 -40 117 -31 5 5 4 12 -2 15 -6 4 -11 5 -11 2
0 -2 -24 2 -52 10 -63 17 -65 17 -52 4z"/>
<path d="M2080 226 c14 -8 27 -12 29 -10 6 6 -1 11 -29 18 l-25 7 25 -15z"/>
<path d="M2628 190 c24 -20 115 -52 185 -64 33 -6 37 -5 37 14 0 12 -4 19 -8
16 -13 -8 -157 21 -190 38 -42 22 -52 20 -24 -4z"/>
<path d="M680 190 c-18 -12 -2 -12 25 0 13 6 15 9 5 9 -8 0 -22 -4 -30 -9z"/>
<path d="M2132 165 c9 -10 21 -16 28 -13 7 2 -1 10 -16 17 -27 12 -28 11 -12
-4z"/>
<path d="M664 146 c-10 -8 -16 -17 -13 -20 3 -3 14 3 24 14 21 23 17 26 -11 6z"/>
<path d="M2117 132 c1 -2 -2 -14 -7 -27 -6 -17 -5 -27 6 -35 9 -8 14 -9 14 -2
0 6 2 16 5 24 3 7 0 20 -7 28 -7 9 -12 14 -11 12z"/>
<path d="M2176 88 c5 -7 2 -9 -9 -5 -11 4 -14 2 -10 -9 3 -7 9 -14 14 -14 5 0
9 -14 9 -32 0 -30 1 -31 15 -12 16 21 20 38 7 30 -4 -2 -8 4 -8 15 0 21 4 23
25 10 8 -5 10 -14 6 -21 -5 -9 -4 -11 3 -6 22 13 12 34 -19 45 -40 14 -42 14
-33 -1z"/>
<path d="M761 79 c-13 -5 -22 -12 -19 -14 6 -6 58 12 58 20 0 7 -11 5 -39 -6z"/>
<path d="M2910 30 c21 -19 45 -30 64 -30 36 0 35 1 -39 33 l-60 27 35 -30z"/>
<path d="M120 25 c-28 -15 -38 -24 -26 -25 17 0 86 36 86 46 0 8 -16 3 -60
-21z"/>
<path d="M2444 32 c14 -23 126 -43 126 -22 0 5 -6 7 -14 4 -13 -5 -58 4 -100
22 -13 5 -17 4 -12 -4z"/>
</g>
</svg>
